<?xml version="1.0" encoding="UTF-8" standalone="no"?>
<svg xmlns="http://www.w3.org/2000/svg" version="1.1" viewBox="0 0 87.06 7.5">
<g transform="translate(-853.63,-580.04)" style="fill:#dedede">
<g transform="translate(1058.4,261.45)">
<path d="m -200.71,320.92 c 0,-0.19 0,-0.34 -0.11,-0.47 -0.1,-0.13 -0.2,-0.24 -0.38,-0.31 -0.13,-0.1 -0.28,-0.1 -0.45,-0.1 -0.17,0 -0.36,0 -0.59,0 l -0.68,0 0,1.96 0.58,0 c 0.3,0 0.55,0 0.75,-0.1 0.2,0 0.37,-0.1 0.51,-0.2 0.13,-0.1 0.22,-0.21 0.28,-0.33 0.1,-0.12 0.1,-0.29 0.1,-0.49 m 2.93,5.04 -2.29,0 -1.98,-2.67 -0.87,0 0,2.67 -1.86,0 0,-7.27 3.14,0 c 0.43,0 0.8,0 1.11,0.1 0.31,0.1 0.6,0.16 0.87,0.32 0.27,0.16 0.49,0.37 0.65,0.63 0.16,0.26 0.24,0.59 0.24,0.98 0,0.53 -0.12,0.97 -0.37,1.31 -0.25,0.34 -0.6,0.62 -1.07,0.84 l 2.43,3.12" />
<path d="m -191.58,325.96 -5.26,0 0,-7.27 5.26,0 0,1.41 -3.39,0 0,1.25 3.14,0 0,1.41 -3.14,0 0,1.79 3.39,0 0,1.41" />
<path d="m -183.3,318.69 -2.65,7.27 -2.1,0 -2.65,-7.27 1.96,0 1.76,5.11 1.76,-5.11 1.92,0"  />
<path d="m -172.3,325.96 -5.24,0 0,-7.27 1.87,0 0,5.86 3.37,0 0,1.41" />
<path d="m -164.47,318.69 -2.65,7.27 -2.1,0 -2.65,-7.27 1.96,0 1.76,5.11 1.76,-5.11 1.92,0" />
<path d="m -158.06,325.96 -5.26,0 0,-7.27 5.26,0 0,1.41 -3.39,0 0,1.25 3.15,0 0,1.41 -3.15,0 0,1.79 3.39,0 0,1.41" />
<path d="m -152.29,320.92 c 0,-0.19 0,-0.34 -0.12,-0.47 -0.1,-0.13 -0.2,-0.24 -0.38,-0.31 -0.13,-0.1 -0.28,-0.1 -0.45,-0.1 -0.17,0 -0.36,0 -0.59,0 l -0.68,0 0,1.96 0.58,0 c 0.3,0 0.55,0 0.75,-0.1 0.2,0 0.37,-0.1 0.51,-0.2 0.13,-0.1 0.22,-0.21 0.28,-0.33 0.1,-0.12 0.1,-0.29 0.1,-0.49 m 2.92,5.04 -2.29,0 -1.98,-2.67 -0.87,0 0,2.67 -1.86,0 0,-7.27 3.14,0 c 0.43,0 0.8,0 1.11,0.1 0.31,0.1 0.6,0.16 0.87,0.32 0.27,0.16 0.49,0.37 0.65,0.63 0.16,0.26 0.24,0.59 0.24,0.98 0,0.53 -0.12,0.97 -0.37,1.31 -0.25,0.34 -0.6,0.62 -1.07,0.84 l 2.43,3.12" />
<path d="m -140.81,325.96 -1.86,0 0,-4.87 -1.35,3.16 -1.29,0 -1.35,-3.16 0,4.87 -1.77,0 0,-7.27 2.18,0 1.63,3.65 1.63,-3.65 2.18,0 0,7.27" style="fill:#fff" />
<path d="m -132.13,325.96 -1.94,0 -0.5,-1.47 -2.69,0 -0.51,1.47 -1.89,0 2.69,-7.27 2.16,0 2.68,7.27 m -2.89,-2.8 -0.9,-2.61 -0.89,2.61 1.79,0" style="fill:#fff" />
<path d="m -124.96,320.98 c 0,0.33 -0.1,0.65 -0.17,0.96 -0.12,0.31 -0.28,0.57 -0.49,0.78 -0.29,0.29 -0.62,0.51 -0.97,0.65 -0.36,0.15 -0.8,0.22 -1.33,0.22 l -1.17,0 0,2.37 -1.87,0 0,-7.27 3.08,0 c 0.46,0 0.85,0 1.17,0.12 0.32,0.1 0.6,0.2 0.84,0.36 0.3,0.19 0.52,0.44 0.67,0.74 0.16,0.29 0.24,0.65 0.24,1.07 m -1.94,0 c 0,-0.21 -0.1,-0.38 -0.17,-0.53 -0.11,-0.15 -0.24,-0.25 -0.38,-0.31 -0.2,-0.1 -0.39,-0.12 -0.57,-0.13 -0.19,0 -0.44,0 -0.75,0 l -0.32,0 0,2.17 0.54,0 c 0.32,0 0.58,0 0.78,-0.1 0.21,0 0.39,-0.12 0.53,-0.24 0.12,-0.1 0.2,-0.23 0.26,-0.37 0,-0.15 0.1,-0.32 0.1,-0.53" style="fill:#fff" />
<path d="m -117.71,323.67 c 0,0.72 -0.3,1.3 -0.91,1.75 -0.61,0.45 -1.43,0.67 -2.47,0.67 -0.6,0 -1.13,0 -1.58,-0.15 -0.45,-0.11 -0.86,-0.25 -1.25,-0.41 l 0,-1.74 0.2,0 c 0.39,0.31 0.82,0.54 1.3,0.71 0.48,0.17 0.94,0.25 1.39,0.25 0.11,0 0.26,0 0.45,0 0.18,0 0.33,-0.1 0.45,-0.1 0.14,-0.1 0.26,-0.13 0.35,-0.22 0.1,-0.1 0.14,-0.22 0.14,-0.39 0,-0.16 -0.1,-0.29 -0.2,-0.41 -0.14,-0.12 -0.33,-0.21 -0.59,-0.27 -0.28,-0.1 -0.57,-0.12 -0.87,-0.18 -0.31,-0.1 -0.59,-0.13 -0.86,-0.22 -0.61,-0.2 -1.05,-0.46 -1.32,-0.8 -0.27,-0.34 -0.4,-0.77 -0.4,-1.27 0,-0.68 0.3,-1.23 0.91,-1.66 0.61,-0.43 1.39,-0.64 2.34,-0.64 0.48,0 0.95,0 1.42,0.14 0.47,0.1 0.87,0.21 1.21,0.35 l 0,1.67 -0.2,0 c -0.29,-0.23 -0.65,-0.43 -1.08,-0.59 -0.42,-0.15 -0.85,-0.23 -1.29,-0.23 -0.16,0 -0.32,0 -0.47,0 -0.16,0 -0.3,0.1 -0.45,0.12 -0.12,0.1 -0.23,0.12 -0.33,0.22 -0.1,0.1 -0.13,0.21 -0.13,0.34 0,0.19 0.1,0.34 0.22,0.44 0.14,0.1 0.42,0.2 0.83,0.28 0.26,0.1 0.52,0.11 0.76,0.16 0.25,0.1 0.52,0.13 0.8,0.22 0.56,0.18 0.97,0.43 1.23,0.74 0.27,0.32 0.4,0.72 0.4,1.22" style="fill:#fff" />
</g>
<path d="m -182.856,300.82 a 1.9335,1.9335 0 1 1 -3.867,0 1.9335,1.9335 0 1 1 3.867,0 z" transform="translate(1062.2,283.05)" />
</g>
</svg>
